<svg width="134" height="48" viewBox="0 0 134 48" fill="none" xmlns="http://www.w3.org/2000/svg">
<path d="M26.0203 14.9335H25.9992H15.1767L2.59983 43H13.6548L20.588 27.2192L27.5422 43H38.5972L26.0203 14.9335Z" fill="#140D31"/>
<path d="M18.4953 5.31675C18.4953 8.26109 20.8839 10.6335 23.8009 10.6335C26.739 10.6335 29.1064 8.23991 29.1064 5.31675C29.1064 2.37242 26.7179 0 23.8009 0C20.8839 0 18.4953 2.3936 18.4953 5.31675Z" fill="#140D31"/>
<rect x="0.599976" y="46" width="39.9971" height="2" fill="url(#paint0_linear_595_6937)"/>
<path d="M64.3521 28.6937L58.2139 15.1819C58.1412 15.0364 58.0323 14.9273 57.8688 14.9273H56.7066C56.5431 14.9273 56.4342 15.0364 56.3615 15.1819L50.2415 28.6937C50.1144 28.9665 50.2778 29.112 50.4594 29.112H52.6931C52.8747 29.112 52.9655 28.9665 53.0927 28.7119L53.7646 27.2025H60.8289L61.5009 28.7119C61.6098 28.9665 61.7188 29.112 61.8822 29.112H64.116C64.2976 29.112 64.4792 28.9665 64.3521 28.6937ZM54.7271 25.0384L57.2877 19.2918L59.8665 25.0384H54.7271Z" fill="#140D31"/>
<path d="M66.0505 26.6387C65.8689 26.8751 65.9415 27.0388 66.0868 27.1661C66.5227 27.5662 68.03 29.2393 70.8267 29.2393C73.7505 29.2393 75.7118 27.4753 75.7118 25.1293C75.7118 22.6016 73.4236 21.6195 70.9901 20.492C69.6462 19.9465 68.9198 19.5828 68.9198 18.6917C68.9198 17.837 69.6644 17.3641 70.7177 17.3641C71.9708 17.3641 73.1512 18.237 73.5144 18.4916C73.7323 18.6735 73.9502 18.6008 74.15 18.328L75.2215 16.9277C75.3667 16.7458 75.2941 16.5458 75.1125 16.3821C74.6766 16.0366 73.2783 14.8 70.8811 14.8C67.921 14.8 66.1776 16.6549 66.1776 18.7281C66.1776 20.9467 68.1208 21.9287 70.9175 23.2562C71.9526 23.6927 72.9696 24.0746 72.9696 25.0748C72.9696 25.9113 72.2795 26.6751 70.863 26.6751C69.1922 26.6751 68.1571 25.6022 67.6668 25.1475C67.5397 25.0202 67.2491 25.002 67.1038 25.2203L66.0505 26.6387Z" fill="#140D31"/>
<path d="M85.0019 29.2393C87.1266 29.2393 88.9427 28.4391 90.3047 27.0752C90.4681 26.9115 90.4863 26.766 90.341 26.6205L88.7792 25.2385C88.6521 25.1112 88.5068 25.1112 88.3615 25.2385C87.617 25.9659 86.6181 26.6205 85.0382 26.6205C82.2415 26.6205 80.3892 24.4928 80.3892 22.0196C80.3892 19.5464 82.2415 17.4187 85.0382 17.4187C86.6 17.4187 87.617 18.0734 88.3615 18.8008C88.5068 18.9281 88.6521 18.9281 88.7792 18.8008L90.341 17.4187C90.4863 17.2732 90.4681 17.1277 90.3047 16.9641C88.9427 15.6001 87.1266 14.8 85.0019 14.8C80.7887 14.8 77.6288 17.8551 77.6288 22.0196C77.6288 26.1841 80.7887 29.2393 85.0019 29.2393Z" fill="#140D31"/>
<path d="M102.446 26.6933H95.9806V23.1471H100.666C100.866 23.1471 100.993 23.0198 100.993 22.8198V21.0194C100.993 20.8376 100.848 20.7103 100.666 20.7103H95.9806V17.346H102.264C102.446 17.346 102.573 17.2368 102.573 17.0368V15.2183C102.573 15.0546 102.428 14.9273 102.264 14.9273H93.6016C93.4018 14.9273 93.2929 15.0546 93.2929 15.2183V28.8028C93.2929 28.9665 93.42 29.112 93.6016 29.112H102.446C102.645 29.112 102.754 28.9847 102.754 28.8028V26.9843C102.754 26.8206 102.627 26.6933 102.446 26.6933Z" fill="#140D31"/>
<path d="M117.226 14.9273H115.119C114.956 14.9273 114.829 15.0728 114.829 15.2364V24.5838L107.928 15.2001C107.801 15.0182 107.637 14.9273 107.419 14.9273H105.313C105.149 14.9273 105.022 15.0546 105.022 15.2183V28.8028C105.022 28.9847 105.149 29.112 105.331 29.112H107.419C107.601 29.112 107.71 28.9665 107.71 28.8028V19.2009L114.629 28.8392C114.756 29.021 114.919 29.112 115.137 29.112H117.244C117.407 29.112 117.516 28.9847 117.516 28.821V15.2364C117.516 15.0546 117.407 14.9273 117.226 14.9273Z" fill="#140D31"/>
<path d="M125.951 14.9273H120.848C120.648 14.9273 120.539 15.0546 120.539 15.2183V28.8028C120.539 28.9847 120.666 29.112 120.848 29.112H125.987C130.799 29.112 133.396 25.8386 133.396 22.0196C133.396 18.1643 130.818 14.9273 125.951 14.9273ZM126.005 26.6933H123.227V17.346H126.005C129.074 17.346 130.636 19.2918 130.654 22.0196C130.654 24.7474 129.056 26.6933 126.005 26.6933Z" fill="#140D31"/>
<path d="M50.7457 42.9971H51.9742C52.081 42.9971 52.1451 42.9115 52.1451 42.8153V34.8243C52.1451 34.7281 52.0703 34.6532 51.9635 34.6532H50.7457C50.6282 34.6532 50.5641 34.7281 50.5641 34.8243V42.8153C50.5641 42.9222 50.6389 42.9971 50.7457 42.9971Z" fill="#140D31"/>
<path d="M61.2353 34.6532H59.9962C59.9 34.6532 59.8253 34.7388 59.8253 34.835V40.3335L55.7659 34.8136C55.6911 34.7067 55.595 34.6532 55.4668 34.6532H54.2276C54.1315 34.6532 54.0567 34.7281 54.0567 34.8243V42.8153C54.0567 42.9222 54.1315 42.9971 54.2383 42.9971H55.4668C55.5736 42.9971 55.6377 42.9115 55.6377 42.8153V37.1671L59.7077 42.8366C59.7825 42.9436 59.8787 42.9971 60.0069 42.9971H61.246C61.3422 42.9971 61.4063 42.9222 61.4063 42.826V34.835C61.4063 34.7281 61.3422 34.6532 61.2353 34.6532Z" fill="#140D31"/>
<path d="M70.489 34.6532H69.2498C69.1537 34.6532 69.0789 34.7388 69.0789 34.835V40.3335L65.0195 34.8136C64.9447 34.7067 64.8486 34.6532 64.7204 34.6532H63.4812C63.3851 34.6532 63.3103 34.7281 63.3103 34.8243V42.8153C63.3103 42.9222 63.3851 42.9971 63.4919 42.9971H64.7204C64.8272 42.9971 64.8913 42.9115 64.8913 42.8153V37.1671L68.9614 42.8366C69.0362 42.9436 69.1323 42.9971 69.2605 42.9971H70.4997C70.5958 42.9971 70.6599 42.9222 70.6599 42.826V34.835C70.6599 34.7281 70.5958 34.6532 70.489 34.6532Z" fill="#140D31"/>
<path d="M76.5378 43.072C79.0376 43.072 80.8322 41.1786 80.8322 38.8251C80.8322 36.4717 79.0376 34.5783 76.5378 34.5783C74.0488 34.5783 72.2435 36.4717 72.2435 38.8251C72.2435 41.1786 74.0488 43.072 76.5378 43.072ZM76.5378 41.5316C74.9568 41.5316 73.8672 40.3228 73.8672 38.8251C73.8672 37.3275 74.9568 36.1187 76.5378 36.1187C78.1295 36.108 79.2192 37.3275 79.2192 38.8251C79.2192 40.3228 78.1295 41.5316 76.5378 41.5316Z" fill="#140D31"/>
<path d="M85.0692 42.9971H85.7529C85.8491 42.9971 85.9132 42.9329 85.9559 42.8473L89.5666 34.8992C89.6414 34.7388 89.5345 34.6532 89.4277 34.6532H88.1138C88.0176 34.6532 87.9535 34.7388 87.8894 34.8885L85.4111 40.4297L82.9434 34.8885C82.8686 34.7388 82.8152 34.6532 82.7084 34.6532H81.3944C81.2876 34.6532 81.1915 34.7388 81.2663 34.8992L84.8663 42.8473C84.909 42.9329 84.9731 42.9971 85.0692 42.9971Z" fill="#140D31"/>
<path d="M96.7768 42.7511L93.1661 34.8029C93.1233 34.7174 93.0592 34.6532 92.9631 34.6532H92.2794C92.1833 34.6532 92.1192 34.7174 92.0765 34.8029L88.4764 42.7511C88.4017 42.9115 88.4978 42.9971 88.6046 42.9971H89.9186C90.0254 42.9971 90.0788 42.9115 90.1536 42.7618L90.5489 41.8739H94.7044L95.0996 42.7618C95.1637 42.9115 95.2278 42.9971 95.3239 42.9971H96.6379C96.7447 42.9971 96.8515 42.9115 96.7768 42.7511ZM91.115 40.6009L92.6213 37.2205L94.1382 40.6009H91.115Z" fill="#140D31"/>
<path d="M102.319 34.6532H96.7538C96.6363 34.6532 96.5616 34.7281 96.5616 34.835V35.9048C96.5616 36.0117 96.647 36.0759 96.7538 36.0759H98.6981V42.8153C98.6981 42.9222 98.7728 42.9971 98.8797 42.9971H100.108C100.215 42.9971 100.279 42.9115 100.279 42.8153V36.0759H102.319C102.416 36.0759 102.49 36.001 102.49 35.8941V34.8243C102.49 34.7174 102.416 34.6532 102.319 34.6532Z" fill="#140D31"/>
<path d="M104.134 42.9971H105.363C105.47 42.9971 105.534 42.9115 105.534 42.8153V34.8243C105.534 34.7281 105.459 34.6532 105.352 34.6532H104.134C104.017 34.6532 103.953 34.7281 103.953 34.8243V42.8153C103.953 42.9222 104.028 42.9971 104.134 42.9971Z" fill="#140D31"/>
<path d="M111.419 43.072C113.919 43.072 115.714 41.1786 115.714 38.8251C115.714 36.4717 113.919 34.5783 111.419 34.5783C108.93 34.5783 107.125 36.4717 107.125 38.8251C107.125 41.1786 108.93 43.072 111.419 43.072ZM111.419 41.5316C109.838 41.5316 108.749 40.3228 108.749 38.8251C108.749 37.3275 109.838 36.1187 111.419 36.1187C113.011 36.108 114.101 37.3275 114.101 38.8251C114.101 40.3228 113.011 41.5316 111.419 41.5316Z" fill="#140D31"/>
<path d="M124.481 34.6532H123.242C123.146 34.6532 123.071 34.7388 123.071 34.835V40.3335L119.011 34.8136C118.937 34.7067 118.841 34.6532 118.712 34.6532H117.473C117.377 34.6532 117.302 34.7281 117.302 34.8243V42.8153C117.302 42.9222 117.377 42.9971 117.484 42.9971H118.712C118.819 42.9971 118.883 42.9115 118.883 42.8153V37.1671L122.953 42.8366C123.028 42.9436 123.124 42.9971 123.252 42.9971H124.492C124.588 42.9971 124.652 42.9222 124.652 42.826V34.835C124.652 34.7281 124.588 34.6532 124.481 34.6532Z" fill="#140D31"/>
<path d="M126.299 41.5423C126.193 41.6813 126.235 41.7776 126.321 41.8525C126.577 42.0878 127.464 43.072 129.109 43.072C130.829 43.072 131.983 42.0343 131.983 40.6544C131.983 39.1675 130.637 38.5898 129.205 37.9266C128.415 37.6056 127.987 37.3917 127.987 36.8675C127.987 36.3648 128.425 36.0866 129.045 36.0866C129.782 36.0866 130.476 36.6001 130.69 36.7499C130.818 36.8568 130.946 36.814 131.064 36.6536L131.694 35.8299C131.78 35.7229 131.737 35.6052 131.63 35.509C131.374 35.3057 130.551 34.5783 129.141 34.5783C127.4 34.5783 126.374 35.6694 126.374 36.8889C126.374 38.194 127.517 38.7717 129.162 39.5526C129.771 39.8093 130.37 40.0339 130.37 40.6223C130.37 41.1144 129.964 41.5637 129.13 41.5637C128.148 41.5637 127.539 40.9325 127.25 40.6651C127.175 40.5902 127.005 40.5795 126.919 40.7079L126.299 41.5423Z" fill="#140D31"/>
<defs>
<linearGradient id="paint0_linear_595_6937" x1="40.5971" y1="46" x2="0.599976" y2="46" gradientUnits="userSpaceOnUse">
<stop stop-color="#FB7257"/>
<stop offset="1" stop-color="#FFE366"/>
</linearGradient>
</defs>
</svg>
